<?xml version="1.0" encoding="UTF-8"?>
<svg id="_圖層_1" data-name="圖層 1" xmlns="http://www.w3.org/2000/svg" viewBox="0 0 802.13 345.29">
  <defs>
    <style>
      .cls-1 {
        fill: #2c2d2d;
      }

      .cls-2 {
        fill: #e9491a;
      }

      .cls-3 {
        fill: #231815;
      }

      .cls-4 {
        fill: #fff;
      }

      .cls-5 {
        fill: #040000;
      }

      .cls-6 {
        fill: #d2aace;
      }
    </style>
  </defs>
  <g>
    <g>
      <path class="cls-2" d="M39.63,146.22v-64.11H13.72V21.56h120.45v60.55h-25.9v64.11H39.63Z"/>
      <path class="cls-2" d="M205.89,146.22h-68.64V21.56h71.07c48.89,0,72.04,15.38,72.04,45.01,0,26.39-21.53,40.96-42.74,40.96-1.13,0-1.78.81-1.78,1.78,0,.81.65,1.62,1.78,1.62,11.82,0,22.67-3.89,29.95-9.88l13.92,45.17h-70.91l-1.78-35.94h-2.91v35.94ZM206.54,53.13h-.65v36.1h.65c2.43,0,3.72-.32,3.72-17.97s-1.3-18.13-3.72-18.13Z"/>
      <path class="cls-2" d="M430.12,146.22h-72.37v-19.59h-3.56v19.59h-72.37l21.53-124.66h105.23l21.53,124.66ZM354.19,97.17h3.56v-25.74c0-1.62-.49-2.27-1.78-2.27s-1.78.65-1.78,2.27v25.74Z"/>
      <path class="cls-2" d="M488.25,21.56h72.2l-21.53,124.66h-104.91l-21.53-124.66h72.21v74.8c0,1.62.65,2.27,1.78,2.27,1.3,0,1.78-.65,1.78-2.27V21.56Z"/>
      <path class="cls-2" d="M678.64,101.05v45.17h-116.4V21.56h116.4v45.17h-47.43c-.97,0-1.62.81-1.62,1.62,0,.97.65,1.78,1.62,1.78h47.43v27.52h-47.43c-.97,0-1.62.81-1.62,1.62,0,.97.65,1.78,1.62,1.78h47.43Z"/>
      <path class="cls-2" d="M751,21.56v64.11h37.4v60.55h-106.04V21.56h68.64Z"/>
    </g>
    <g>
      <g>
        <path class="cls-4" d="M39.63,154.22c-4.42,0-8-3.58-8-8v-56.11H13.72c-4.42,0-8-3.58-8-8V21.56c0-4.42,3.58-8,8-8h120.45c4.42,0,8,3.58,8,8v60.55c0,4.42-3.58,8-8,8h-17.9v56.11c0,4.42-3.58,8-8,8H39.63Z"/>
        <path class="cls-4" d="M39.63,154.22c-4.42,0-8-3.58-8-8v-56.11H13.72c-4.42,0-8-3.58-8-8V21.56c0-4.42,3.58-8,8-8h120.45c4.42,0,8,3.58,8,8v60.55c0,4.42-3.58,8-8,8h-17.9v56.11c0,4.42-3.58,8-8,8H39.63Z"/>
      </g>
      <g>
        <path class="cls-4" d="M210.59,154.22c-.82,0-1.6-.12-2.35-.35-.74.23-1.53.35-2.35.35h-68.64c-4.42,0-8-3.58-8-8V21.56c0-4.42,3.58-8,8-8h71.07c26.05,0,45.24,4.13,58.64,12.64,14.2,9.01,21.4,22.59,21.4,40.37,0,12.83-4.52,24.45-12.81,33.21l13.59,44.09c.75,2.43.3,5.06-1.21,7.11-1.51,2.04-3.9,3.25-6.44,3.25h-70.91Z"/>
        <path class="cls-4" d="M210.59,154.22c-.82,0-1.6-.12-2.35-.35-.74.23-1.53.35-2.35.35h-68.64c-4.42,0-8-3.58-8-8V21.56c0-4.42,3.58-8,8-8h71.07c26.05,0,45.24,4.13,58.64,12.64,14.2,9.01,21.4,22.59,21.4,40.37,0,12.83-4.52,24.45-12.81,33.21l13.59,44.09c.75,2.43.3,5.06-1.21,7.11-1.51,2.04-3.9,3.25-6.44,3.25h-70.91Z"/>
      </g>
      <g>
        <path class="cls-4" d="M357.75,154.22c-.61,0-1.21-.07-1.78-.2-.57.13-1.17.2-1.78.2h-72.37c-2.36,0-4.6-1.04-6.12-2.85-1.52-1.81-2.17-4.19-1.76-6.51l21.53-124.66c.66-3.84,3.99-6.64,7.88-6.64h105.23c3.89,0,7.22,2.8,7.88,6.64l21.53,124.66c.4,2.33-.24,4.71-1.76,6.51-1.52,1.8-3.76,2.85-6.12,2.85h-72.37Z"/>
        <path class="cls-4" d="M357.75,154.22c-.61,0-1.21-.07-1.78-.2-.57.13-1.17.2-1.78.2h-72.37c-2.36,0-4.6-1.04-6.12-2.85-1.52-1.81-2.17-4.19-1.76-6.51l21.53-124.66c.66-3.84,3.99-6.64,7.88-6.64h105.23c3.89,0,7.22,2.8,7.88,6.64l21.53,124.66c.4,2.33-.24,4.71-1.76,6.51-1.52,1.8-3.76,2.85-6.12,2.85h-72.37Z"/>
      </g>
      <g>
        <path class="cls-4" d="M434.01,154.22c-3.89,0-7.22-2.8-7.88-6.64l-21.53-124.66c-.4-2.33.24-4.71,1.76-6.51,1.52-1.8,3.76-2.85,6.12-2.85h72.21c.61,0,1.21.07,1.78.2.57-.13,1.17-.2,1.78-.2h72.2c2.36,0,4.6,1.04,6.12,2.85,1.52,1.81,2.17,4.19,1.76,6.51l-21.53,124.66c-.66,3.84-3.99,6.64-7.88,6.64h-104.91Z"/>
        <path class="cls-4" d="M434.01,154.22c-3.89,0-7.22-2.8-7.88-6.64l-21.53-124.66c-.4-2.33.24-4.71,1.76-6.51,1.52-1.8,3.76-2.85,6.12-2.85h72.21c.61,0,1.21.07,1.78.2.57-.13,1.17-.2,1.78-.2h72.2c2.36,0,4.6,1.04,6.12,2.85,1.52,1.81,2.17,4.19,1.76,6.51l-21.53,124.66c-.66,3.84-3.99,6.64-7.88,6.64h-104.91Z"/>
      </g>
      <g>
        <path class="cls-4" d="M562.23,154.22c-4.42,0-8-3.58-8-8V21.56c0-4.42,3.58-8,8-8h116.4c4.42,0,8,3.58,8,8v45.17c0,.58-.06,1.15-.18,1.7.12.55.18,1.12.18,1.7v27.52c0,.58-.06,1.15-.18,1.7.12.55.18,1.12.18,1.7v45.17c0,4.42-3.58,8-8,8h-116.4Z"/>
        <path class="cls-4" d="M562.23,154.22c-4.42,0-8-3.58-8-8V21.56c0-4.42,3.58-8,8-8h116.4c4.42,0,8,3.58,8,8v45.17c0,.58-.06,1.15-.18,1.7.12.55.18,1.12.18,1.7v27.52c0,.58-.06,1.15-.18,1.7.12.55.18,1.12.18,1.7v45.17c0,4.42-3.58,8-8,8h-116.4Z"/>
      </g>
      <g>
        <path class="cls-4" d="M682.36,154.22c-4.42,0-8-3.58-8-8V21.56c0-4.42,3.58-8,8-8h68.64c4.42,0,8,3.58,8,8v56.11h29.4c4.42,0,8,3.58,8,8v60.55c0,4.42-3.58,8-8,8h-106.04Z"/>
        <path class="cls-4" d="M682.36,154.22c-4.42,0-8-3.58-8-8V21.56c0-4.42,3.58-8,8-8h68.64c4.42,0,8,3.58,8,8v56.11h29.4c4.42,0,8,3.58,8,8v60.55c0,4.42-3.58,8-8,8h-106.04Z"/>
      </g>
    </g>
    <g>
      <g>
        <path class="cls-5" d="M39.63,146.22v-64.11H13.72V21.56h120.45v60.55h-25.9v64.11H39.63Z"/>
        <path class="cls-5" d="M39.63,146.22v-64.11H13.72V21.56h120.45v60.55h-25.9v64.11H39.63Z"/>
      </g>
      <g>
        <path class="cls-5" d="M205.89,146.22h-68.64V21.56h71.07c48.89,0,72.04,15.38,72.04,45.01,0,26.39-21.53,40.96-42.74,40.96-1.13,0-1.78.81-1.78,1.78,0,.81.65,1.62,1.78,1.62,11.82,0,22.67-3.89,29.95-9.88l13.92,45.17h-70.91l-1.78-35.94h-2.91v35.94ZM206.54,53.13h-.65v36.1h.65c2.43,0,3.72-.32,3.72-17.97s-1.3-18.13-3.72-18.13Z"/>
        <path class="cls-5" d="M205.89,146.22h-68.64V21.56h71.07c48.89,0,72.04,15.38,72.04,45.01,0,26.39-21.53,40.96-42.74,40.96-1.13,0-1.78.81-1.78,1.78,0,.81.65,1.62,1.78,1.62,11.82,0,22.67-3.89,29.95-9.88l13.92,45.17h-70.91l-1.78-35.94h-2.91v35.94ZM206.54,53.13h-.65v36.1h.65c2.43,0,3.72-.32,3.72-17.97s-1.3-18.13-3.72-18.13Z"/>
      </g>
      <g>
        <path class="cls-5" d="M430.12,146.22h-72.37v-19.59h-3.56v19.59h-72.37l21.53-124.66h105.23l21.53,124.66ZM354.19,97.17h3.56v-25.74c0-1.62-.49-2.27-1.78-2.27s-1.78.65-1.78,2.27v25.74Z"/>
        <path class="cls-5" d="M430.12,146.22h-72.37v-19.59h-3.56v19.59h-72.37l21.53-124.66h105.23l21.53,124.66ZM354.19,97.17h3.56v-25.74c0-1.62-.49-2.27-1.78-2.27s-1.78.65-1.78,2.27v25.74Z"/>
      </g>
      <g>
        <path class="cls-5" d="M488.25,21.56h72.2l-21.53,124.66h-104.91l-21.53-124.66h72.21v74.8c0,1.62.65,2.27,1.78,2.27,1.3,0,1.78-.65,1.78-2.27V21.56Z"/>
        <path class="cls-5" d="M488.25,21.56h72.2l-21.53,124.66h-104.91l-21.53-124.66h72.21v74.8c0,1.62.65,2.27,1.78,2.27,1.3,0,1.78-.65,1.78-2.27V21.56Z"/>
      </g>
      <g>
        <path class="cls-5" d="M678.64,101.05v45.17h-116.4V21.56h116.4v45.17h-47.43c-.97,0-1.62.81-1.62,1.62,0,.97.65,1.78,1.62,1.78h47.43v27.52h-47.43c-.97,0-1.62.81-1.62,1.62,0,.97.65,1.78,1.62,1.78h47.43Z"/>
        <path class="cls-5" d="M678.64,101.05v45.17h-116.4V21.56h116.4v45.17h-47.43c-.97,0-1.62.81-1.62,1.62,0,.97.65,1.78,1.62,1.78h47.43v27.52h-47.43c-.97,0-1.62.81-1.62,1.62,0,.97.65,1.78,1.62,1.78h47.43Z"/>
      </g>
      <g>
        <path class="cls-5" d="M751,21.56v64.11h37.4v60.55h-106.04V21.56h68.64Z"/>
        <path class="cls-5" d="M751,21.56v64.11h37.4v60.55h-106.04V21.56h68.64Z"/>
      </g>
    </g>
  </g>
  <g>
    <g>
      <path class="cls-1" d="M116.53,263.02c0,.81.65,1.78,1.62,1.78,13.11,0,22.18-3.4,28.82-7.93,6.48,6.31,9.88,15.22,9.88,24.77,0,26.23-23.15,38.85-72.04,38.85H13.72v-124.66h71.07c48.89,0,69.94,12.3,69.94,36.1,0,17.32-11.82,29.46-36.59,29.46-.97,0-1.62.81-1.62,1.62ZM83.01,221.25h-.65v28.49h.65c2.43,0,3.72-.16,3.72-14.25s-1.3-14.25-3.72-14.25ZM83.01,263.67h-.65v31.41h.65c2.43,0,3.72-.16,3.72-15.54s-1.3-15.87-3.72-15.87Z"/>
      <path class="cls-1" d="M375.4,192.6c49.38,0,72.21,21.21,72.21,65.57s-22.83,65.57-72.21,65.57-72.21-21.21-72.21-65.57,22.83-65.57,72.21-65.57ZM377.51,258.16c0-31.08-.65-31.73-2.11-31.73s-2.1.65-2.1,31.73"/>
      <path class="cls-1" d="M502.33,261.4c1.46,0,1.78-.97,1.78-2.11,0-39.02,20.72-66.7,61.52-66.7,9.71,0,18.46,1.46,24.77,3.08l-10.52,60.22h-59.09c-1.3,0-2.1.32-2.1,1.62,0,1.46.81,1.78,2.1,1.78h59.09l14.57,61.2h-70.59l-2.27-53.75c-.16-2.1-2.91-2.1-2.91,0v53.75h-68.64v-124.66h68.64v11.01c-12.95,14.41-17.97,32.54-17.97,52.45,0,1.13.49,2.11,1.62,2.11Z"/>
    </g>
    <g>
      <g>
        <path class="cls-4" d="M13.72,328.49c-4.42,0-8-3.58-8-8v-124.66c0-4.42,3.58-8,8-8h71.07c25.67,0,44.33,3.29,57.06,10.06,13.85,7.37,20.88,18.82,20.88,34.04,0,8.73-2.47,16.38-7.19,22.47,6.02,7.38,9.3,16.89,9.3,27.23,0,16.23-7.36,28.45-21.88,36.3-13.13,7.1-32.16,10.56-58.16,10.56H13.72Z"/>
        <path class="cls-4" d="M13.72,328.49c-4.42,0-8-3.58-8-8v-124.66c0-4.42,3.58-8,8-8h71.07c25.67,0,44.33,3.29,57.06,10.06,13.85,7.37,20.88,18.82,20.88,34.04,0,8.73-2.47,16.38-7.19,22.47,6.02,7.38,9.3,16.89,9.3,27.23,0,16.23-7.36,28.45-21.88,36.3-13.13,7.1-32.16,10.56-58.16,10.56H13.72Z"/>
      </g>
      <g>
        <path class="cls-4" d="M375.4,331.73c-26.94,0-46.57-5.97-60.01-18.24-13.59-12.41-20.19-30.5-20.19-55.33s6.6-42.92,20.19-55.33c13.44-12.27,33.07-18.24,60.01-18.24s46.57,5.97,60.01,18.24c13.59,12.41,20.19,30.5,20.19,55.33s-6.6,42.92-20.19,55.33c-13.44,12.27-33.07,18.24-60.01,18.24Z"/>
        <path class="cls-4" d="M375.4,331.73c-26.94,0-46.57-5.97-60.01-18.24-13.59-12.41-20.19-30.5-20.19-55.33s6.6-42.92,20.19-55.33c13.44-12.27,33.07-18.24,60.01-18.24s46.57,5.97,60.01,18.24c13.59,12.41,20.19,30.5,20.19,55.33s-6.6,42.92-20.19,55.33c-13.44,12.27-33.07,18.24-60.01,18.24Z"/>
      </g>
      <g>
        <path class="cls-4" d="M523.86,328.49c-.91,0-1.78-.15-2.59-.43-.81.28-1.68.43-2.59.43h-68.64c-4.42,0-8-3.58-8-8v-124.66c0-4.42,3.58-8,8-8h68.64c4.1,0,7.47,3.08,7.94,7.05,10.65-6.69,23.81-10.29,39.01-10.29,11.39,0,20.84,1.81,26.76,3.33,4.05,1.04,6.61,5.01,5.89,9.13l-10.52,60.22c-.02.11-.04.21-.06.32l14.53,61.05c.57,2.38.01,4.89-1.5,6.81s-3.83,3.04-6.28,3.04h-70.59Z"/>
        <path class="cls-4" d="M523.86,328.49c-.91,0-1.78-.15-2.59-.43-.81.28-1.68.43-2.59.43h-68.64c-4.42,0-8-3.58-8-8v-124.66c0-4.42,3.58-8,8-8h68.64c4.1,0,7.47,3.08,7.94,7.05,10.65-6.69,23.81-10.29,39.01-10.29,11.39,0,20.84,1.81,26.76,3.33,4.05,1.04,6.61,5.01,5.89,9.13l-10.52,60.22c-.02.11-.04.21-.06.32l14.53,61.05c.57,2.38.01,4.89-1.5,6.81s-3.83,3.04-6.28,3.04h-70.59Z"/>
      </g>
    </g>
    <g>
      <g>
        <path class="cls-3" d="M116.53,263.02c0,.81.65,1.78,1.62,1.78,13.11,0,22.18-3.4,28.82-7.93,6.48,6.31,9.88,15.22,9.88,24.77,0,26.23-23.15,38.85-72.04,38.85H13.72v-124.66h71.07c48.89,0,69.94,12.3,69.94,36.1,0,17.32-11.82,29.46-36.59,29.46-.97,0-1.62.81-1.62,1.62ZM83.01,221.25h-.65v28.49h.65c2.43,0,3.72-.16,3.72-14.25s-1.3-14.25-3.72-14.25ZM83.01,263.67h-.65v31.41h.65c2.43,0,3.72-.16,3.72-15.54s-1.3-15.87-3.72-15.87Z"/>
        <path class="cls-3" d="M116.53,263.02c0,.81.65,1.78,1.62,1.78,13.11,0,22.18-3.4,28.82-7.93,6.48,6.31,9.88,15.22,9.88,24.77,0,26.23-23.15,38.85-72.04,38.85H13.72v-124.66h71.07c48.89,0,69.94,12.3,69.94,36.1,0,17.32-11.82,29.46-36.59,29.46-.97,0-1.62.81-1.62,1.62ZM83.01,221.25h-.65v28.49h.65c2.43,0,3.72-.16,3.72-14.25s-1.3-14.25-3.72-14.25ZM83.01,263.67h-.65v31.41h.65c2.43,0,3.72-.16,3.72-15.54s-1.3-15.87-3.72-15.87Z"/>
      </g>
      <g>
        <path class="cls-3" d="M375.4,192.6c49.38,0,72.21,21.21,72.21,65.57s-22.83,65.57-72.21,65.57-72.21-21.21-72.21-65.57,22.83-65.57,72.21-65.57ZM377.51,258.16c0-31.08-.65-31.73-2.11-31.73s-2.1.65-2.1,31.73"/>
        <path class="cls-3" d="M375.4,192.6c49.38,0,72.21,21.21,72.21,65.57s-22.83,65.57-72.21,65.57-72.21-21.21-72.21-65.57,22.83-65.57,72.21-65.57ZM377.51,258.16c0-31.08-.65-31.73-2.11-31.73s-2.1.65-2.1,31.73"/>
      </g>
      <g>
        <path class="cls-3" d="M502.33,261.4c1.46,0,1.78-.97,1.78-2.11,0-39.02,20.72-66.7,61.52-66.7,9.71,0,18.46,1.46,24.77,3.08l-10.52,60.22h-59.09c-1.3,0-2.1.32-2.1,1.62,0,1.46.81,1.78,2.1,1.78h59.09l14.57,61.2h-70.59l-2.27-53.75c-.16-2.1-2.91-2.1-2.91,0v53.75h-68.64v-124.66h68.64v11.01c-12.95,14.41-17.97,32.54-17.97,52.45,0,1.13.49,2.11,1.62,2.11Z"/>
        <path class="cls-3" d="M502.33,261.4c1.46,0,1.78-.97,1.78-2.11,0-39.02,20.72-66.7,61.52-66.7,9.71,0,18.46,1.46,24.77,3.08l-10.52,60.22h-59.09c-1.3,0-2.1.32-2.1,1.62,0,1.46.81,1.78,2.1,1.78h59.09l14.57,61.2h-70.59l-2.27-53.75c-.16-2.1-2.91-2.1-2.91,0v53.75h-68.64v-124.66h68.64v11.01c-12.95,14.41-17.97,32.54-17.97,52.45,0,1.13.49,2.11,1.62,2.11Z"/>
      </g>
    </g>
  </g>
  <g>
    <path class="cls-4" d="M230.02,329.54c-1.73,0-3.45-.56-4.89-1.67-2.94-2.27-9.49-4.91-16.42-7.71-23.45-9.45-58.89-23.74-58.89-62,0-24.82,6.6-42.92,20.19-55.33,13.44-12.27,33.07-18.24,60.01-18.24s46.57,5.97,60.01,18.24c13.59,12.41,20.19,30.5,20.19,55.33,0,36.91-26.62,47.86-50.1,57.53-8.9,3.66-18.1,7.45-25.66,12.5-1.35.9-2.9,1.35-4.44,1.35Z"/>
    <path class="cls-6" d="M230.02,192.6c49.38,0,72.21,21.21,72.21,65.57s-43.73,44.35-72.21,63.38c-14.72-11.37-72.2-19.02-72.2-63.38s22.83-65.57,72.2-65.57ZM230.02,289.9c1.46,0,2.11-.65,2.11-31.73s-.65-31.73-2.11-31.73-2.1.65-2.1,31.73.65,31.73,2.1,31.73ZM157.81,252.27,302.22,252.27,302.22,258.16c0,44.36-57.36,49.69-72.21,63.38-14.72-11.37-72.2-19.02-72.2-63.38"/>
  </g>
</svg>